<?xml version="1.0" encoding="UTF-8"?>
<svg id="Layer_1" data-name="Layer 1" xmlns="http://www.w3.org/2000/svg" viewBox="0 0 756.31 756.3">
  <defs>
    <style>
      .cls-1 {
        fill: #fff;
      }

      .cls-2 {
        fill: #2bb673;
      }
    </style>
  </defs>
  <path class="cls-1" d="M712.88,636.29c0,38.8-29.05,71.5-67.58,76-3.24,.38-6.53,.55-9.8,.56-85.78,.03-171.56,.02-257.35,.02-86.27-.01-172.53,0-258.79-.01-39.09,0-72.74-31.15-75.54-69.94-.25-3.45-.38-6.93-.38-10.38-.02-170.9-.02-341.79-.02-512.68,0-39.76,30.64-72.92,70.31-76.07,2.88-.22,5.77-.35,8.66-.35,171.28-.02,342.55-.02,513.83-.02,40,0,73.1,30.52,76.29,70.38,.23,2.88,.35,5.77,.35,8.65,.02,171.29,.02,342.56,.02,513.84Z"/>
  <g>
    <g>
      <path class="cls-2" d="M712.86,122.45c0-2.88-.12-5.77-.35-8.65-3.19-39.86-36.29-70.38-76.29-70.38-171.28,0-342.55,0-513.83,.02-2.89,0-5.78,.13-8.66,.35-39.67,3.15-70.31,36.31-70.31,76.07,0,170.89,0,341.78,.02,512.68,0,3.45,.13,6.93,.38,10.38,2.8,38.79,36.45,69.94,75.54,69.94,86.26,.01,172.52,0,258.79,.01,85.79,0,171.57,.01,257.35-.02,3.27-.01,6.56-.18,9.8-.56,38.53-4.5,67.58-37.2,67.58-76,0-171.28,0-342.55-.02-513.84Zm43.42-2.37c0-12.7-1.81-25.17-5.83-37.24C733.68,32.52,688.49,0,635.42,0,464.64,0,293.84,0,123.05,.04c-6.24,0-12.53,.3-18.72,1.09-26.3,3.33-49.09,14.27-67.98,32.8C11.84,57.95,.01,87.42,0,121.67,0,207.06,0,292.45,0,377.85s-.03,171.37,.06,257.05c0,6.34,.36,12.74,1.29,19,8.81,59.22,58.85,102.36,118.8,102.37,171.95,.05,343.9,.06,515.84-.09,8.33,0,16.81-.81,24.95-2.54,56.29-11.93,95.33-60.22,95.34-117.72,.05-171.95,.02-343.89,0-515.84Zm-28.65,258.22v257.63c0,45.91-32.58,83.93-77.97,90.78-4.45,.68-9.02,.88-13.53,.88-171.85,.05-343.7,.04-515.55,.04-46.2-.01-83.99-32.37-90.98-78.05-.69-4.55-.89-9.22-.89-13.83-.05-171.94-.05-343.89-.04-515.83,.01-45.56,33.34-84.15,78.1-90.38,4.67-.64,9.42-.85,14.13-.85,171.75-.04,343.5-.02,515.25-.03,45.77-.01,84,32.93,90.57,78.19,.69,4.75,.87,9.61,.87,14.41,.06,85.68,.04,171.36,.04,257.04Zm-15.12-264.5c-3.19-39.86-36.29-70.38-76.29-70.38-171.28,0-342.55,0-513.83,.02-2.89,0-5.78,.13-8.66,.35-39.67,3.15-70.31,36.31-70.31,76.07,0,170.89,0,341.78,.02,512.68,0,3.45,.13,6.93,.38,10.38,2.8,38.79,36.45,69.94,75.54,69.94,86.26,.01,172.52,0,258.79,.01,85.79,0,171.57,.01,257.35-.02,3.27-.01,6.56-.18,9.8-.56,38.53-4.5,67.58-37.2,67.58-76,0-171.28,0-342.55-.02-513.84,0-2.88-.12-5.77-.35-8.65Z"/>
      <path class="cls-1" d="M727.59,121.26c0-4.8-.18-9.66-.87-14.41-6.57-45.26-44.8-78.2-90.57-78.19-171.75,0-343.5-.01-515.25,.03-4.71,0-9.46,.21-14.13,.85C62.01,35.77,28.68,74.36,28.67,119.92c-.01,171.94-.01,343.89,.04,515.83,0,4.61,.2,9.28,.89,13.83,6.99,45.68,44.78,78.04,90.98,78.05,171.85,0,343.7,.01,515.55-.04,4.51,0,9.08-.2,13.53-.88,45.39-6.85,77.97-44.87,77.97-90.78V378.3c0-85.68,.02-171.36-.04-257.04Zm-82.29,591.03c-3.24,.38-6.53,.55-9.8,.56-85.78,.03-171.56,.02-257.35,.02-86.27-.01-172.53,0-258.79-.01-39.09,0-72.74-31.15-75.54-69.94-.25-3.45-.38-6.93-.38-10.38-.02-170.9-.02-341.79-.02-512.68,0-39.76,30.64-72.92,70.31-76.07,2.88-.22,5.77-.35,8.66-.35,171.28-.02,342.55-.02,513.83-.02,40,0,73.1,30.52,76.29,70.38,.23,2.88,.35,5.77,.35,8.65,.02,171.29,.02,342.56,.02,513.84,0,38.8-29.05,71.5-67.58,76Z"/>
      <path class="cls-2" d="M712.88,636.29c0,38.8-29.05,71.5-67.58,76-3.24,.38-6.53,.55-9.8,.56-85.78,.03-171.56,.02-257.35,.02-86.27-.01-172.53,0-258.79-.01-39.09,0-72.74-31.15-75.54-69.94-.25-3.45-.38-6.93-.38-10.38-.02-170.9-.02-341.79-.02-512.68,0-39.76,30.64-72.92,70.31-76.07,2.88-.22,5.77-.35,8.66-.35,171.28-.02,342.55-.02,513.83-.02,40,0,73.1,30.52,76.29,70.38,.23,2.88,.35,5.77,.35,8.65,.02,171.29,.02,342.56,.02,513.84Z"/>
    </g>
    <g>
      <path class="cls-1" d="M464.06,282.12h117.09l-77.7,90.83,85.36,83.17-117.91,6.57,1.64,119.83-90.28-78.79s-75.51,91.92-111.62,113.26c-36.11,21.34-85.36,33.65-129.68,37.75,0,0,104.24-70.58,132.96-146.91l13.95-34.47-115.73,1.64,76.33-87-87.82-89.46,126.4-3.28-.82-123.93,87.82,77.97s71.41-91.1,119.01-114.91c47.6-23.8,76.33-31.19,122.29-32.83,0,0-74.69,52.53-101.77,90.28-27.08,37.75-49.52,90.28-49.52,90.28Z"/>
      <path class="cls-2" d="M353.53,353.25l-61.28-159.77s85.91,151.02,85.91,151.02c5.03-11.48,10.16-22.91,15.35-34.31,12.78-28.13,24.69-57.43,41.82-83.26,16.58-25.01,37.94-46.35,60.8-65.56,6.51-5.47,13.23-10.71,20.16-15.65,17.94-12.79,37.58-23.83,58.86-29.95-1.57,.45-3.29,1.98-4.65,2.83-4.34,2.71-8.62,5.53-12.85,8.42-14.36,9.8-28.18,20.41-41.34,31.78-29.22,25.24-55.16,54.65-73.27,88.91-14.11,26.71-27.59,54.14-36.94,82.94-1.97,6.07-4.1,12.4-4.96,18.76l158.13-59.09-148.83,81.53,157.58,73.32-164.7-45.96,60.74,163.6s-85.91-152.11-85.91-152.11c-11.16,27.74-23.79,55.04-37.66,81.52-8.68,16.56-17.89,33.02-28.9,48.16-14.09,19.38-32.37,37.74-50.17,53.81-24,21.66-52.4,36.02-82.44,47.41,0,0,73.89-46.82,99.58-79.89,59.09-76.06,77.15-154.3,77.15-154.3l-152.66,54.17,144.45-78.52-161.96-75.78,167.98,45.96Z"/>
    </g>
  </g>
</svg>